<svg width="24" height="24" viewBox="0 0 24 24" fill="none" xmlns="http://www.w3.org/2000/svg">
<rect width="24" height="24" rx="12" fill="white"/>
<path d="M12.0004 6C10.3709 6 10.1664 6.00713 9.52637 6.03625C8.88762 6.0655 8.45162 6.16663 8.07012 6.315C7.6755 6.46825 7.34075 6.67325 7.00725 7.00688C6.6735 7.34037 6.4685 7.67512 6.31475 8.06962C6.166 8.45125 6.06475 8.88738 6.036 9.52587C6.0075 10.1659 6 10.3705 6 12C6 13.6295 6.00725 13.8334 6.03625 14.4734C6.06563 15.1121 6.16675 15.5481 6.315 15.9296C6.46838 16.3242 6.67337 16.659 7.007 16.9925C7.34037 17.3263 7.67512 17.5318 8.0695 17.685C8.45125 17.8334 8.88737 17.9345 9.526 17.9637C10.166 17.9929 10.3704 18 11.9997 18C13.6294 18 13.8332 17.9929 14.4732 17.9637C15.112 17.9345 15.5485 17.8334 15.9303 17.685C16.3248 17.5318 16.659 17.3263 16.9924 16.9925C17.3261 16.659 17.5311 16.3242 17.6849 15.9297C17.8324 15.5481 17.9336 15.112 17.9636 14.4735C17.9924 13.8335 17.9999 13.6295 17.9999 12C17.9999 10.3705 17.9924 10.166 17.9636 9.526C17.9336 8.88725 17.8324 8.45125 17.6849 8.06975C17.5311 7.67512 17.3261 7.34037 16.9924 7.00688C16.6586 6.67313 16.3249 6.46813 15.9299 6.315C15.5474 6.16663 15.1111 6.0655 14.4724 6.03625C13.8324 6.00713 13.6286 6 11.9986 6H12.0004ZM11.4621 7.08125C11.6219 7.081 11.8001 7.08125 12.0004 7.08125C13.6024 7.08125 13.7922 7.087 14.4249 7.11575C15.0099 7.1425 15.3274 7.24025 15.5389 7.32237C15.8189 7.43112 16.0185 7.56113 16.2284 7.77113C16.4384 7.98112 16.5684 8.18112 16.6774 8.46112C16.7595 8.67237 16.8574 8.98987 16.884 9.57487C16.9127 10.2074 16.919 10.3974 16.919 11.9986C16.919 13.5999 16.9127 13.7899 16.884 14.4224C16.8572 15.0074 16.7595 15.3249 16.6774 15.5361C16.5686 15.8161 16.4384 16.0155 16.2284 16.2254C16.0184 16.4354 15.819 16.5654 15.5389 16.6741C15.3276 16.7566 15.0099 16.8541 14.4249 16.8809C13.7924 16.9096 13.6024 16.9159 12.0004 16.9159C10.3982 16.9159 10.2084 16.9096 9.57587 16.8809C8.99087 16.8539 8.67337 16.7561 8.46175 16.674C8.18175 16.5652 7.98175 16.4352 7.77175 16.2252C7.56175 16.0152 7.43175 15.8158 7.32275 15.5356C7.24063 15.3244 7.14275 15.0069 7.11613 14.4219C7.08738 13.7894 7.08162 13.5994 7.08162 11.9971C7.08162 10.3949 7.08738 10.2059 7.11613 9.57338C7.14288 8.98838 7.24063 8.67087 7.32275 8.45937C7.4315 8.17937 7.56175 7.97937 7.77175 7.76937C7.98175 7.55937 8.18175 7.42937 8.46175 7.32037C8.67325 7.23787 8.99087 7.14038 9.57587 7.1135C10.1294 7.0885 10.3439 7.081 11.4621 7.07975V7.08125ZM15.2031 8.0775C15.0607 8.0775 14.9215 8.11973 14.8031 8.19886C14.6847 8.27798 14.5924 8.39045 14.5379 8.52203C14.4834 8.6536 14.4692 8.79838 14.497 8.93806C14.5248 9.07773 14.5934 9.20602 14.6941 9.30671C14.7948 9.40739 14.9231 9.47594 15.0628 9.5037C15.2025 9.53145 15.3473 9.51715 15.4788 9.46262C15.6104 9.40809 15.7228 9.31576 15.8019 9.19733C15.881 9.07889 15.9232 8.93966 15.9231 8.79725C15.9231 8.39975 15.6006 8.07725 15.2031 8.07725V8.0775ZM12.0004 8.91875C10.2987 8.91875 8.91912 10.2984 8.91912 12C8.91912 13.7016 10.2987 15.0806 12.0004 15.0806C13.702 15.0806 15.0813 13.7016 15.0813 12C15.0813 10.2984 13.7019 8.91875 12.0002 8.91875H12.0004ZM12.0004 10C13.1049 10 14.0004 10.8954 14.0004 12C14.0004 13.1045 13.1049 14 12.0004 14C10.8957 14 10.0004 13.1045 10.0004 12C10.0004 10.8954 10.8957 10 12.0004 10V10Z" fill="#19191A"/>
</svg>
