<svg width="24" height="24" viewBox="0 0 24 24" fill="none" xmlns="http://www.w3.org/2000/svg">
<rect width="24" height="24" rx="12" fill="white"/>
<g clip-path="url(#clip0_4962_512)">
<path d="M7.44869 6.10352C8.23487 6.10352 8.89691 6.76555 8.89691 7.55173C8.89691 8.37928 8.19348 9.02064 7.44869 8.99995C6.6832 9.02064 6.00047 8.37928 6.00047 7.55173C5.97978 6.74486 6.64184 6.10352 7.44869 6.10352Z" fill="#19191A"/>
<path d="M8.25541 17.8968H6.6003C6.37273 17.8968 6.18652 17.7106 6.18652 17.483V10.2419C6.18652 10.0143 6.35203 9.82812 6.5796 9.82812H8.25539C8.48296 9.82812 8.66916 10.0143 8.66916 10.2419V17.5037C8.66918 17.7106 8.48298 17.8968 8.25541 17.8968Z" fill="#19191A"/>
<path d="M17.979 12.352C17.979 10.821 16.8411 9.62109 15.3101 9.62109H14.8757C14.0481 9.62109 13.2412 10.0142 12.8068 10.6555C12.662 10.8004 12.5999 10.8624 12.5999 10.8624V10.0349C12.5999 9.95214 12.4757 9.82799 12.393 9.82799H10.3241C10.2413 9.82799 10.1172 9.91075 10.1172 10.0142V17.7311C10.1172 17.8139 10.2413 17.8966 10.3241 17.8966H12.5998C12.6826 17.8966 12.8067 17.8139 12.8067 17.7311V13.2623C12.8067 12.4968 13.386 11.8555 14.1515 11.8348C14.5446 11.8348 14.8963 11.9796 15.1653 12.2486C15.4135 12.4968 15.517 12.8485 15.517 13.2416V17.6897C15.517 17.7725 15.6411 17.8966 15.7239 17.8966H17.7928C17.8755 17.8966 17.9997 17.7725 17.9997 17.6897V12.352H17.979Z" fill="#19191A"/>
</g>
<defs>
<clipPath id="clip0_4962_512">
<rect width="12" height="12" fill="white" transform="translate(6 6)"/>
</clipPath>
</defs>
</svg>
