<svg width="24" height="24" viewBox="0 0 24 24" fill="none" xmlns="http://www.w3.org/2000/svg">
<rect width="24" height="24" rx="12" fill="white"/>
<g clip-path="url(#clip0_4962_518)">
<path d="M14.3257 11.7739C13.0421 11.0879 11.813 10.4573 10.5566 9.79883V13.7378C11.8787 13.0191 13.2722 12.3609 14.3312 11.7739H14.3257Z" fill="white"/>
<path d="M14.3257 11.7739C13.0421 11.0879 10.5566 9.79883 10.5566 9.79883L13.8704 12.0261C13.8707 12.0261 13.2668 12.3609 14.3257 11.7739Z" fill="white"/>
<path d="M10.7982 16.8203C8.13192 16.7712 7.22127 16.727 6.66153 16.6117C6.28283 16.5351 5.95374 16.3649 5.71244 16.1182C5.52595 15.9314 5.37763 15.6465 5.26257 15.2512C5.16387 14.9218 5.12543 14.6478 5.07062 13.9784C4.98672 12.4678 4.96672 11.2327 5.07062 9.85273C5.15633 9.09065 5.19789 8.18597 5.76724 7.65818C6.03608 7.41117 6.3488 7.25221 6.69997 7.18649C7.24854 7.08234 9.58569 7 12.0052 7C14.4192 7 16.7615 7.08234 17.3106 7.18649C17.7493 7.26883 18.1608 7.51558 18.4023 7.83377C18.9218 8.65091 18.9309 9.66701 18.9836 10.4618C19.0054 10.8405 19.0054 12.9909 18.9836 13.3696C18.9015 14.6257 18.8356 15.0701 18.6491 15.5309C18.5337 15.8218 18.4353 15.9753 18.2649 16.1455C17.9977 16.4073 17.657 16.5814 17.2883 16.6447C14.981 16.8182 13.0218 16.8558 10.7982 16.8203ZM14.3314 11.773C13.0478 11.087 11.8187 10.4509 10.5623 9.79247V13.7317C11.8844 13.013 13.2782 12.3545 14.3369 11.7675L14.3314 11.773Z" fill="#19191A"/>
</g>
<defs>
<clipPath id="clip0_4962_518">
<rect width="14" height="9.8336" fill="white" transform="translate(5 7)"/>
</clipPath>
</defs>
</svg>
