<svg width="107" height="24" viewBox="0 0 107 24" fill="none" xmlns="http://www.w3.org/2000/svg">
<g clip-path="url(#clip0_4929_536)">
<path d="M107 0.00585938V23.994H0V0.00585938H107Z" fill="#FECC00"/>
<path d="M34.4991 10.0298C34.0316 10.673 33.2492 11.7912 32.7731 12.4443C32.5314 12.7764 32.0949 13.3794 33.5421 13.3794H41.1615C41.1615 13.3794 42.3895 11.6823 43.4191 10.2629C44.8194 8.33206 43.5402 4.31445 38.5338 4.31445H18.8176L15.399 9.03279H34.031C34.9716 9.03279 34.9588 9.39646 34.4991 10.0298ZM28.9016 14.5434C27.4544 14.5434 27.8909 13.9392 28.1326 13.607C28.6087 12.9539 29.4039 11.8475 29.8715 11.2043C30.3317 10.5709 30.3439 10.2073 29.402 10.2073H20.8809L14.0152 19.686H30.7585C36.2885 19.686 39.3673 15.8651 40.3165 14.544L28.9016 14.5434ZM39.7935 19.686H49.6157L53.3393 14.5428L43.5183 14.544C43.5152 14.5434 39.7935 19.686 39.7935 19.686ZM65.1359 4.31445L61.3685 9.51273H56.9849L60.7505 4.31445H50.9314L44.3621 13.3794H68.3864L74.9538 4.31445H65.1359ZM53.9992 19.686H63.8178L67.5432 14.544H57.7246C57.721 14.5434 53.9992 19.686 53.9992 19.686ZM0 16.572V17.6642H13.6791L14.4694 16.572H0ZM15.9397 14.5434H0V15.6344H15.1476L15.9397 14.5434ZM0 19.686H12.2137L13.0003 18.6H0V19.686ZM92.5854 17.6636H107V16.5714H93.3769L92.5854 17.6636ZM91.1212 19.686H107V18.6H91.9072L91.1212 19.686ZM94.8448 14.5434L94.0551 15.6356H107V14.5434H94.8448ZM81.9839 13.3794L88.5526 4.31445H78.1532C78.1496 4.31445 71.5797 13.3794 71.5797 13.3794H81.9839ZM70.7377 14.5434C70.7377 14.5434 70.0199 15.5398 69.671 16.0197C68.4382 17.7118 69.5286 19.686 73.5529 19.686H89.3221L93.0475 14.544H70.7377V14.5434Z" fill="#D50029"/>
</g>
<defs>
<clipPath id="clip0_4929_536">
<rect width="107" height="24" rx="4" fill="white"/>
</clipPath>
</defs>
</svg>
