<svg width="137" height="32" viewBox="0 0 137 32" fill="none" xmlns="http://www.w3.org/2000/svg">
<g clip-path="url(#clip0_4884_55323)">
<path d="M46.4457 11.8675C45.4587 11.2218 44.3178 10.8988 43.1625 10.9379C42.0546 10.8916 40.9615 11.2225 40.0394 11.8832L39.8065 12.0863V11.305H36.8945V31.6641H40.2287V24.8908C41.19 25.4924 42.2855 25.8028 43.3982 25.7891C44.511 25.7753 45.5994 25.4379 46.5476 24.8127C47.4629 24.1438 48.1945 23.2239 48.666 22.1486C49.1761 20.9567 49.4251 19.6552 49.394 18.344C49.4148 17.0213 49.1507 15.7112 48.6224 14.5159C48.1353 13.4367 47.3826 12.5209 46.4457 11.8675ZM45.5576 20.508C45.3684 21.123 45.0168 21.6659 44.5457 22.0705C44.0422 22.4724 43.4254 22.6765 42.7985 22.6486C42.1694 22.6845 41.5471 22.4949 41.0295 22.1096C40.5581 21.7298 40.2114 21.199 40.0394 20.594C39.8364 19.8642 39.7382 19.1055 39.7482 18.344C39.7381 17.5851 39.8363 16.8289 40.0394 16.1019C40.2007 15.5118 40.5257 14.9885 40.9712 14.6019C41.456 14.223 42.0466 14.0328 42.6456 14.0628C43.2963 14.0343 43.937 14.2406 44.4656 14.6487C44.9499 15.0483 45.3144 15.5916 45.5139 16.2112C45.7512 16.8932 45.8696 17.6161 45.8633 18.344C45.8794 19.0789 45.776 19.8113 45.5576 20.508Z" fill="#19191A"/>
<path d="M58.5881 11.2665C58.1962 11.2962 57.8083 11.3695 57.4306 11.4853C57.0672 11.5993 56.7195 11.7648 56.3968 11.9774C55.9831 12.2299 55.6195 12.567 55.3267 12.9696C55.1903 13.1592 55.0686 13.3604 54.9627 13.5712V11.2978H52.0508V25.3601H55.3995V18.1883C55.3939 17.6947 55.4653 17.2036 55.6106 16.7352C55.7376 16.3175 55.9452 15.9332 56.2199 15.6075C56.4946 15.2817 56.8303 15.0217 57.2049 14.8446C57.6151 14.6401 58.0568 14.5183 58.508 14.4852C58.9362 14.4428 59.368 14.4851 59.782 14.6102V11.2978C59.386 11.2444 58.986 11.234 58.5881 11.2665Z" fill="#19191A"/>
<path d="M65.6502 6.20312H62.3379V9.33589H65.6502V6.20312Z" fill="#19191A"/>
<path d="M65.6502 11.2969H62.3379V25.3982H65.6502V11.2969Z" fill="#19191A"/>
<path d="M81.28 14.655C81.1187 14.0138 80.8578 13.4064 80.5084 12.8582C80.1195 12.2585 79.5996 11.7703 78.9942 11.4363C78.2105 11.029 77.3453 10.8358 76.4753 10.8738C75.3475 10.828 74.2324 11.1435 73.2722 11.7801C72.8819 12.0544 72.527 12.3827 72.2166 12.7566V11.2957H69.3047V25.358H72.6607V18.2409C72.6353 17.5232 72.729 16.8063 72.9373 16.1238C73.0839 15.6645 73.334 15.2512 73.6653 14.9207C73.9223 14.6594 74.2346 14.469 74.5753 14.366C74.8705 14.2705 75.1769 14.2205 75.4853 14.2175C76.0695 14.1793 76.6481 14.3587 77.1232 14.7253C77.4798 15.0701 77.7459 15.5092 77.8949 15.9988C78.0602 16.4837 78.1607 16.9914 78.1934 17.5066C78.1934 18.0066 78.2443 18.4128 78.2443 18.7409V25.3971H81.6003V17.4831C81.6003 17.2488 81.5858 16.8738 81.5567 16.3581C81.5153 15.7823 81.4227 15.212 81.28 14.655Z" fill="#19191A"/>
<path d="M88.8651 7.375H85.5527V11.2812H83.3105V14.0624H85.5527V19.4373C85.5527 20.2889 85.5527 20.9998 85.5527 21.7029C85.5771 22.3939 85.7543 23.0687 86.0696 23.6717C86.4121 24.3478 86.9628 24.8752 87.6275 25.1638C88.3699 25.4876 89.1629 25.6573 89.9643 25.6638C90.8603 25.6825 91.7557 25.6013 92.636 25.4216V22.4451C91.9325 22.5561 91.2205 22.5927 90.5103 22.5545C90.2346 22.5566 89.9625 22.4866 89.7177 22.3505C89.4729 22.2143 89.2627 22.0162 89.1053 21.7732C88.9377 21.4512 88.8523 21.0874 88.8578 20.7186C88.8578 20.2811 88.8578 19.7889 88.8578 19.242V14.0624H92.6506V11.2968H88.8578L88.8651 7.375Z" fill="#19191A"/>
<path d="M104.278 11.9446C103.227 11.2353 102.002 10.884 100.762 10.9368C99.5551 10.9102 98.3647 11.2371 97.3182 11.8821C96.3208 12.5149 95.5087 13.4351 94.9741 14.5383C94.3838 15.7829 94.0911 17.1656 94.1224 18.5617C94.0976 19.8719 94.3965 21.1657 94.9887 22.3117C95.5568 23.3916 96.3903 24.2833 97.3983 24.8898C98.4932 25.512 99.7198 25.8189 100.958 25.7804C102.194 25.7886 103.407 25.4173 104.453 24.7101C105.513 24.0053 106.335 22.9537 106.797 21.7101L103.492 20.6867C103.271 21.233 102.9 21.6937 102.429 22.007C101.924 22.3252 101.347 22.4849 100.762 22.4679C100.319 22.4987 99.8767 22.4171 99.4694 22.2298C99.0621 22.0425 98.7017 21.7547 98.4175 21.3898C98.0093 20.7834 97.7582 20.0718 97.6895 19.3273H106.913C107.076 17.8225 106.909 16.2977 106.425 14.8743C106.01 13.6825 105.259 12.6588 104.278 11.9446ZM100.907 13.9837C101.301 13.9465 101.697 14.0133 102.061 14.178C102.425 14.3428 102.746 14.6006 102.997 14.929C103.31 15.4645 103.499 16.0724 103.55 16.7024H97.7842C97.8802 16.1194 98.0966 15.5668 98.4175 15.0852C98.7215 14.7031 99.1058 14.404 99.5387 14.2125C99.9715 14.0209 100.441 13.9425 100.907 13.9837Z" fill="#19191A"/>
<path d="M118.524 12.0853C118.451 12.0228 118.378 11.9447 118.298 11.8822C117.367 11.2161 116.263 10.8851 115.146 10.9369C113.985 10.9084 112.842 11.2422 111.855 11.8978C110.915 12.5492 110.159 13.4654 109.671 14.5462C109.14 15.7405 108.876 17.0513 108.9 18.3743C108.872 19.6852 109.12 20.986 109.628 22.179C110.102 23.2547 110.836 24.1746 111.753 24.843C112.712 25.4989 113.835 25.8259 114.971 25.7805C116.079 25.8172 117.172 25.5048 118.116 24.882V26.3039C118.145 26.7753 118.013 27.2421 117.745 27.6164C117.463 27.9715 117.099 28.2409 116.689 28.3976C116.242 28.5778 115.768 28.6679 115.291 28.6632C114.843 28.6668 114.401 28.5543 114.003 28.3351C113.615 28.1279 113.299 27.7942 113.1 27.382L110.035 28.9445C110.369 29.5612 110.809 30.1046 111.331 30.546C111.871 31.0111 112.482 31.3731 113.136 31.6163C113.821 31.8754 114.543 32.005 115.269 31.9991C116.179 32.0084 117.084 31.8715 117.956 31.5929C118.732 31.3486 119.449 30.9216 120.052 30.3429C120.631 29.7756 121.04 29.0357 121.224 28.2179C121.3 27.9159 121.351 27.6075 121.377 27.2961C121.406 26.9836 121.421 26.6555 121.421 26.3117V11.2963H118.509L118.524 12.0853ZM117.279 22.093C116.76 22.4762 116.139 22.6656 115.51 22.6321C114.881 22.6586 114.262 22.4547 113.755 22.054C113.288 21.6451 112.938 21.1037 112.743 20.4915C112.518 19.7961 112.407 19.0638 112.416 18.3274C112.409 17.5951 112.525 16.8674 112.758 16.179C112.96 15.5588 113.327 15.0157 113.813 14.6166C114.342 14.2084 114.983 14.0021 115.633 14.0306C116.23 14.0005 116.819 14.1908 117.301 14.5697C117.751 14.9518 118.077 15.4768 118.232 16.0697C118.439 16.7959 118.537 17.5526 118.524 18.3118C118.537 19.0736 118.439 19.8329 118.232 20.5618C118.076 21.1689 117.742 21.7059 117.279 22.093Z" fill="#19191A"/>
<path d="M133.688 11.2969L130.259 20.8905L126.801 11.2969H123.372L128.672 25.2889L126.51 31.6638H129.575L137 11.2969H133.688Z" fill="#19191A"/>
<path d="M15.507 12.2576L12.2092 18.3904C11.3064 15.2705 11.135 11.9597 11.7102 8.75162C12.2855 5.54359 13.5896 2.5375 15.507 0C15.507 0 19.8094 2.48434 24.3229 10.8827C28.8364 19.281 29.0184 25.1168 29.0184 25.1168C29.0184 25.1168 24.1045 17.8904 17.822 16.5232L15.507 12.2576Z" fill="#CD99F6"/>
<path d="M29.0177 25.1171C29.0177 25.1171 28.9012 21.3281 26.4989 15.4766C23.5739 14.8166 20.5283 15.195 17.8213 16.5548C24.1038 17.8907 29.0177 25.1171 29.0177 25.1171Z" fill="url(#paint0_linear_4884_55323)"/>
<path d="M9.88657 22.6951H16.4894C14.423 25.0938 11.8371 26.9085 8.96089 27.9782C6.08468 29.048 3.00697 29.3398 0.00053479 28.8278C0.00053479 28.8278 -0.145062 23.5857 4.36844 15.1873C8.88195 6.78902 13.5119 3.71094 13.5119 3.71094C13.5119 3.71094 10.1414 11.8905 12.2016 18.3904L9.88657 22.6951Z" fill="#6CCADA"/>
<path d="M13.5118 3.71094C13.5118 3.71094 10.5198 5.71091 6.95996 10.8749C7.89585 13.9182 9.72442 16.5548 12.1723 18.3904C10.1413 11.8905 13.5118 3.71094 13.5118 3.71094Z" fill="url(#paint1_linear_4884_55323)"/>
<path d="M21.1124 22.703L17.8219 16.5625C20.7912 17.2847 23.5486 18.7819 25.8496 20.9215C28.1506 23.061 29.9242 25.7768 31.013 28.828C31.013 28.828 26.8635 31.5779 17.8219 31.5779C8.78037 31.5779 3.99023 28.828 3.99023 28.828C3.99023 28.828 12.282 27.867 16.497 22.703H21.1124Z" fill="#4998E1"/>
<path d="M3.99023 28.828C3.99023 28.828 7.10601 30.6093 13.0318 31.3046C15.0255 28.9197 16.2419 25.9032 16.497 22.7109C12.282 27.8671 3.99023 28.828 3.99023 28.828Z" fill="url(#paint2_linear_4884_55323)"/>
<path d="M16.4892 22.7031L4.3173 25.9921L3.44372 27.7812L3.10156 29.0859C5.61939 29.0494 8.10413 28.465 10.4053 27.3678C12.7065 26.2707 14.7762 24.6838 16.4892 22.7031Z" fill="#6CCADA"/>
<path d="M11.4884 14.7186L12.2164 18.3748L15.5142 12.242L15.7762 12.7264L17.4724 10.0077V2.34374L14.2912 1.79688C11.9874 5.62433 10.9965 10.1928 11.4884 14.7186Z" fill="#CD99F6"/>
</g>
<defs>
<linearGradient id="paint0_linear_4884_55323" x1="27.1905" y1="20.1875" x2="18.1682" y2="18.97" gradientUnits="userSpaceOnUse">
<stop stop-color="#8F72DA" stop-opacity="0"/>
<stop offset="1" stop-color="#8F72DA"/>
</linearGradient>
<linearGradient id="paint1_linear_4884_55323" x1="10.1413" y1="6.67183" x2="12.3172" y2="16.9964" gradientUnits="userSpaceOnUse">
<stop stop-color="#45A6C8" stop-opacity="0"/>
<stop offset="1" stop-color="#45A6C8"/>
</linearGradient>
<linearGradient id="paint2_linear_4884_55323" x1="9.33364" y1="29.1874" x2="17.3098" y2="21.8058" gradientUnits="userSpaceOnUse">
<stop stop-color="#3B75A7" stop-opacity="0"/>
<stop offset="1" stop-color="#3B75A7"/>
</linearGradient>
<clipPath id="clip0_4884_55323">
<rect width="137" height="32" fill="white"/>
</clipPath>
</defs>
</svg>
