<svg width="92" height="32" viewBox="0 0 92 32" fill="none" xmlns="http://www.w3.org/2000/svg">
<g clip-path="url(#clip0_4884_55408)">
<path d="M45.8196 29.5937C45.3552 29.8438 44.8583 30.026 44.3437 30.1351C43.8298 30.2481 43.3055 30.3051 42.7797 30.3051C42.2451 30.3094 41.714 30.2169 41.2113 30.0322C40.751 29.8626 40.3297 29.5992 39.9733 29.2582C39.621 28.9129 39.3434 28.4969 39.1582 28.0367C38.7689 27.0054 38.7689 25.8644 39.1582 24.8331C39.3434 24.3729 39.621 23.9569 39.9733 23.6116C40.3268 23.2647 40.7466 22.9951 41.2069 22.8197C41.7099 22.6365 42.241 22.5456 42.7753 22.5512C43.3169 22.5445 43.8568 22.6153 44.379 22.7615C44.8571 22.9005 45.2963 23.1519 45.661 23.4953L44.5376 24.7436C44.3277 24.5219 44.076 24.3454 43.7974 24.2246C43.4723 24.0949 43.1245 24.0339 42.7753 24.0456C42.458 24.0397 42.143 24.1006 41.8501 24.2246C41.5808 24.3359 41.3376 24.5036 41.1364 24.7168C40.9401 24.9355 40.7901 25.1929 40.6958 25.4729C40.4843 26.087 40.4843 26.7559 40.6958 27.37C40.7913 27.6468 40.9412 27.901 41.1364 28.1172C41.3363 28.3406 41.5812 28.5176 41.8545 28.6362C42.1474 28.7602 42.4624 28.8211 42.7797 28.8152C43.0777 28.8196 43.3747 28.7789 43.6608 28.6944C43.8699 28.6317 44.0734 28.5508 44.2688 28.4528V27.2447H42.9471V25.7503H45.8196V29.5937Z" fill="#1D1D1B"/>
<path d="M47.2773 22.752H52.2029V24.2508H48.8766V25.6244H52.0179V27.1188H48.8766V28.6356H52.4012V30.1345H47.2906L47.2773 22.752Z" fill="#1D1D1B"/>
<path d="M53.666 22.752H56.4724C56.8249 22.7516 57.1763 22.7891 57.521 22.8638C57.8351 22.9252 58.1345 23.0484 58.4022 23.2262C58.6542 23.4016 58.8588 23.6385 58.9969 23.9153C59.1536 24.2503 59.2291 24.6184 59.2172 24.9891C59.2336 25.4693 59.0926 25.9414 58.8163 26.3314C58.5312 26.7085 58.1122 26.9574 57.6488 27.0249L59.4904 30.1569H57.5783L56.0627 27.2128H55.2741V30.1569H53.6748L53.666 22.752ZM55.2653 25.7989H56.2081H56.6487C56.7994 25.7908 56.948 25.7591 57.0893 25.705C57.2162 25.6537 57.3273 25.5687 57.4109 25.4589C57.4999 25.3277 57.5447 25.1707 57.5386 25.0115C57.5473 24.8544 57.5089 24.6985 57.4285 24.564C57.3564 24.4552 57.2577 24.3674 57.1421 24.309C57.0153 24.2482 56.8801 24.2075 56.7412 24.1882C56.5953 24.1668 56.448 24.1563 56.3006 24.1569H55.2565L55.2653 25.7989Z" fill="#1D1D1B"/>
<path d="M60.3008 22.752H62.7195L64.3849 27.5573H64.4069L66.0855 22.752H68.491V30.1166H66.8961V24.4701H66.8741L64.9708 30.1166H63.7505L61.9177 24.4701V30.1166H60.3184L60.3008 22.752Z" fill="#1D1D1B"/>
<path d="M72.3502 22.752H73.6719L76.8264 30.1166H75.0245L74.3989 28.5551H71.5836L70.9801 30.1166H69.2178L72.3502 22.752ZM72.967 24.8951L72.0859 27.1815H73.8482L72.967 24.8951Z" fill="#1D1D1B"/>
<path d="M77.54 22.752H79.7429L82.8269 27.8705V22.752H84.4218V30.1166H82.3335L79.1701 24.8772V30.1166H77.54V22.752Z" fill="#1D1D1B"/>
<path d="M87.6739 26.9762L84.9512 22.7525H86.9381L88.4801 25.5042L90.1058 22.748H92.0003L89.2776 26.9718V30.1038H87.6739V26.9762Z" fill="#1D1D1B"/>
<path d="M39.2324 12.3184H40.8273V19.6875H39.2324V12.3184Z" fill="#1D1D1B"/>
<path d="M42.2949 12.3184H44.4669L47.5509 17.4325V12.3184H49.1502V19.6875H47.0619L43.8986 14.4392V19.6875H42.2949V12.3184Z" fill="#1D1D1B"/>
<path d="M39.2549 1.69567H41.9468C42.3029 1.69154 42.6585 1.72301 43.0085 1.78963C43.3225 1.85161 43.6217 1.97468 43.8897 2.15205C44.1489 2.32487 44.3586 2.56409 44.4977 2.84556C44.6551 3.18506 44.7306 3.55777 44.718 3.93281C44.7246 4.30443 44.6494 4.67285 44.4977 5.01111C44.374 5.28913 44.1811 5.52967 43.9382 5.7091C43.6816 5.88864 43.3926 6.01485 43.0879 6.08046C42.7372 6.15429 42.3798 6.19028 42.0217 6.18784H40.8498V9.05585H39.2549V1.69567ZM40.8498 4.82766H41.9159C42.0549 4.82801 42.1936 4.81452 42.3301 4.78739C42.4558 4.76162 42.5764 4.71474 42.6869 4.64869C42.7943 4.58217 42.8825 4.48801 42.9425 4.37576C43.0158 4.23894 43.0494 4.08379 43.0394 3.92833C43.0478 3.76882 43.0028 3.61111 42.9116 3.48091C42.8273 3.36462 42.7151 3.2722 42.5856 3.21245C42.4459 3.14962 42.2971 3.11032 42.145 3.09612C41.9885 3.07862 41.8311 3.06966 41.6736 3.06927H40.8498V4.82766Z" fill="#1D1D1B"/>
<path d="M45.7051 1.69544H48.5071C48.8596 1.69286 49.2114 1.73038 49.5557 1.80729C49.8698 1.86873 50.1691 1.99183 50.4368 2.16971C50.6877 2.3445 50.8921 2.57969 51.0316 2.85427C51.1876 3.19106 51.2631 3.56054 51.2519 3.93257C51.2706 4.41305 51.1294 4.88592 50.8509 5.27486C50.5646 5.6505 50.1462 5.89903 49.6834 5.96837L51.525 9.07351H49.6129L48.0974 6.13392H47.3088V9.07351H45.7139L45.7051 1.69544ZM47.2999 4.74242H48.2428H48.6833C48.8338 4.73247 48.9822 4.70083 49.1239 4.64846C49.2509 4.59719 49.362 4.5122 49.4455 4.40237C49.5396 4.26513 49.5847 4.09938 49.5733 3.93257C49.5844 3.78916 49.5525 3.64568 49.4817 3.52107C49.4109 3.39646 49.3046 3.29657 49.1768 3.23459C49.0507 3.17184 48.9152 3.13101 48.7759 3.11378C48.63 3.09238 48.4827 3.08191 48.3353 3.08246H47.2911L47.2999 4.74242Z" fill="#1D1D1B"/>
<path d="M52.3174 1.69531H53.9123V9.05549H52.3174V1.69531Z" fill="#1D1D1B"/>
<path d="M55.3662 1.69531H57.5382L60.6222 6.80941V1.69531H62.2171V9.05549H60.1288L56.9831 3.81612V9.05549H55.3838L55.3662 1.69531Z" fill="#1D1D1B"/>
<path d="M65.1122 3.13155H63.0459V1.69531H68.7733V3.13155H66.707V9.05549H65.1078L65.1122 3.13155Z" fill="#1D1D1B"/>
<path d="M69.6494 1.69531H74.575V3.19419H71.2443V4.5678H74.39V6.0622H71.2443V7.56108H74.7689V9.05549H69.6494V1.69531Z" fill="#1D1D1B"/>
<path d="M76.0381 1.69535H78.4216C78.9781 1.69362 79.5327 1.75972 80.0737 1.89221C80.5666 2.01042 81.031 2.228 81.4395 2.53203C81.8422 2.8318 82.1673 3.2264 82.3867 3.68192C82.626 4.21973 82.7419 4.80565 82.726 5.39557C82.7373 5.94088 82.6242 6.48146 82.3955 6.97499C82.1864 7.41544 81.8858 7.80467 81.5144 8.11593C81.1208 8.43173 80.6725 8.66998 80.1927 8.81839C79.6942 8.97936 79.1738 9.05939 78.6507 9.05552H76.0381V1.69535ZM77.6374 7.56112H78.4656C78.8111 7.56278 79.1556 7.52374 79.4922 7.44479C79.7903 7.37908 80.0712 7.24941 80.316 7.06447C80.5531 6.88291 80.7422 6.64468 80.8667 6.37096C81.0075 6.03778 81.0752 5.67745 81.065 5.31503C81.0732 4.9903 81.0052 4.66825 80.8667 4.37543C80.7388 4.11651 80.5551 3.89017 80.3292 3.71324C80.0917 3.53348 79.8225 3.40137 79.5362 3.32398C79.2237 3.23494 78.9003 3.19126 78.5758 3.19423H77.6374V7.56112Z" fill="#1D1D1B"/>
<path d="M9.78508 31.9958C15.1892 31.9958 19.5702 27.5467 19.5702 22.0585C19.5702 16.5702 15.1892 12.1211 9.78508 12.1211C4.38093 12.1211 0 16.5702 0 22.0585C0 27.5467 4.38093 31.9958 9.78508 31.9958Z" fill="#DD0C15"/>
<path d="M24.0331 31.9958C29.4373 31.9958 33.8182 27.5467 33.8182 22.0585C33.8182 16.5702 29.4373 12.1211 24.0331 12.1211C18.629 12.1211 14.248 16.5702 14.248 22.0585C14.248 27.5467 18.629 31.9958 24.0331 31.9958Z" fill="#FFCE01"/>
<path d="M16.914 19.8747C22.3181 19.8747 26.6991 15.4256 26.6991 9.93736C26.6991 4.44911 22.3181 0 16.914 0C11.5098 0 7.12891 4.44911 7.12891 9.93736C7.12891 15.4256 11.5098 19.8747 16.914 19.8747Z" fill="#1D1D1B"/>
</g>
<defs>
<clipPath id="clip0_4884_55408">
<rect width="92" height="32" fill="white"/>
</clipPath>
</defs>
</svg>
