<svg width="152" height="35" viewBox="0 0 152 35" fill="none" xmlns="http://www.w3.org/2000/svg">
<g clip-path="url(#clip0_4929_461)">
<path d="M51.5315 12.9785C50.4364 12.2723 49.1706 11.919 47.8888 11.9617C46.6596 11.9111 45.4468 12.273 44.4238 12.9956L44.1653 13.2178V12.3633H40.9346V34.6311H44.6338V27.2227C45.7004 27.8807 46.9157 28.2202 48.1503 28.2052C49.3849 28.1901 50.5926 27.8211 51.6446 27.1373C52.6601 26.4057 53.4717 25.3995 53.9949 24.2235C54.5608 22.9198 54.8371 21.4963 54.8026 20.0622C54.8257 18.6154 54.5327 17.1825 53.9465 15.8752C53.4061 14.6948 52.571 13.6932 51.5315 12.9785ZM50.5461 22.4291C50.3362 23.1017 49.9462 23.6954 49.4234 24.138C48.8649 24.5776 48.1805 24.8009 47.4849 24.7704C46.787 24.8096 46.0965 24.6022 45.5223 24.1808C44.9993 23.7653 44.6146 23.1848 44.4238 22.5231C44.1985 21.7249 44.0896 20.8951 44.1007 20.0622C44.0895 19.2321 44.1984 18.405 44.4238 17.6098C44.6027 16.9644 44.9633 16.3921 45.4576 15.9692C45.9954 15.5548 46.6507 15.3468 47.3153 15.3796C48.0372 15.3484 48.7482 15.574 49.3346 16.0205C49.8719 16.4575 50.2763 17.0517 50.4976 17.7294C50.7609 18.4753 50.8924 19.266 50.8853 20.0622C50.9032 20.866 50.7884 21.667 50.5461 22.4291Z" fill="white"/>
<path d="M65.0031 12.321C64.5683 12.3535 64.1379 12.4337 63.7188 12.5602C63.3156 12.6849 62.9299 12.866 62.5719 13.0986C62.1129 13.3747 61.7095 13.7434 61.3846 14.1838C61.2333 14.3911 61.0983 14.6111 60.9808 14.8417V12.3552H57.75V27.7358H61.4654V19.8917C61.4592 19.3518 61.5384 18.8146 61.6996 18.3024C61.8405 17.8455 62.0708 17.4252 62.3756 17.0689C62.6804 16.7126 63.0528 16.4283 63.4685 16.2345C63.9235 16.0109 64.4136 15.8777 64.9142 15.8414C65.3893 15.795 65.8684 15.8413 66.3277 15.9782V12.3552C65.8883 12.2968 65.4446 12.2854 65.0031 12.321Z" fill="white"/>
<path d="M72.8381 6.78516H69.1631V10.2116H72.8381V6.78516Z" fill="white"/>
<path d="M72.8381 12.3555H69.1631V27.7788H72.8381V12.3555Z" fill="white"/>
<path d="M90.1791 16.0295C90.0001 15.3282 89.7106 14.6638 89.3229 14.0642C88.8915 13.4083 88.3147 12.8743 87.6429 12.509C86.7735 12.0636 85.8136 11.8522 84.8483 11.8938C83.597 11.8437 82.3599 12.1888 81.2945 12.885C80.8614 13.185 80.4676 13.5442 80.1233 13.9531V12.3552H76.8926V27.7359H80.616V19.9516C80.5879 19.1665 80.6918 18.3825 80.923 17.6359C81.0856 17.1336 81.363 16.6815 81.7307 16.32C82.0157 16.0342 82.3622 15.826 82.7403 15.7133C83.0678 15.6089 83.4078 15.5542 83.7499 15.551C84.398 15.5092 85.04 15.7053 85.5672 16.1064C85.9628 16.4835 86.258 16.9637 86.4233 17.4992C86.6068 18.0296 86.7183 18.5849 86.7545 19.1483C86.7545 19.6952 86.811 20.1395 86.811 20.4984V27.7786H90.5345V19.1227C90.5345 18.8664 90.5183 18.4562 90.486 17.8923C90.4401 17.2624 90.3373 16.6386 90.1791 16.0295Z" fill="white"/>
<path d="M98.5953 8.06641H94.9203V12.3388H92.4326V15.3808H94.9203V21.2596C94.9203 22.191 94.9203 22.9685 94.9203 23.7376C94.9473 24.4933 95.1439 25.2314 95.4938 25.8909C95.8737 26.6304 96.4847 27.2073 97.2222 27.5229C98.046 27.8771 98.9258 28.0627 99.8149 28.0698C100.809 28.0902 101.802 28.0015 102.779 27.8049V24.5493C101.999 24.6707 101.209 24.7107 100.421 24.669C100.115 24.6713 99.8129 24.5947 99.5413 24.4458C99.2697 24.2969 99.0365 24.0802 98.8618 23.8145C98.6758 23.4623 98.5811 23.0643 98.5872 22.6609C98.5872 22.1824 98.5872 21.6441 98.5872 21.046V15.3808H102.795V12.3559H98.5872L98.5953 8.06641Z" fill="white"/>
<path d="M115.695 13.065C114.529 12.2892 113.169 11.9049 111.793 11.9627C110.455 11.9336 109.134 12.2911 107.973 12.9966C106.866 13.6887 105.965 14.6952 105.372 15.9019C104.717 17.2631 104.393 18.7754 104.427 20.3024C104.4 21.7354 104.731 23.1505 105.388 24.4039C106.019 25.5851 106.944 26.5604 108.062 27.2237C109.277 27.9043 110.638 28.2399 112.012 28.1978C113.383 28.2069 114.728 27.8007 115.888 27.0272C117.065 26.2564 117.977 25.1062 118.489 23.746L114.822 22.6266C114.578 23.2241 114.166 23.7281 113.643 24.0707C113.083 24.4187 112.442 24.5934 111.793 24.5748C111.303 24.6085 110.812 24.5193 110.36 24.3144C109.908 24.1095 109.508 23.7947 109.193 23.3957C108.74 22.7324 108.461 21.9541 108.385 21.1398H118.618C118.799 19.4939 118.614 17.8261 118.077 16.2693C117.616 14.9658 116.784 13.8461 115.695 13.065ZM111.955 15.2952C112.392 15.2546 112.831 15.3276 113.235 15.5078C113.639 15.688 113.996 15.9699 114.273 16.3291C114.621 16.9148 114.831 17.5798 114.887 18.2688H108.49C108.597 17.6311 108.837 17.0268 109.193 16.5C109.53 16.0821 109.956 15.7549 110.437 15.5454C110.917 15.336 111.437 15.2502 111.955 15.2952Z" fill="white"/>
<path d="M131.5 13.2189C131.42 13.1505 131.339 13.0651 131.25 12.9967C130.217 12.2682 128.993 11.9061 127.753 11.9628C126.465 11.9316 125.197 12.2968 124.102 13.0138C123.059 13.7263 122.22 14.7283 121.679 15.9105C121.09 17.2167 120.796 18.6504 120.823 20.0975C120.792 21.5313 121.068 22.9539 121.63 24.2588C122.156 25.4354 122.971 26.4415 123.989 27.1726C125.053 27.89 126.298 28.2477 127.559 28.1979C128.788 28.2381 130.001 27.8964 131.048 27.2153V28.7704C131.081 29.2861 130.934 29.7966 130.636 30.206C130.323 30.5944 129.919 30.889 129.465 31.0604C128.969 31.2575 128.444 31.356 127.914 31.351C127.417 31.3549 126.927 31.2318 126.485 30.9921C126.055 30.7654 125.704 30.4004 125.483 29.9496L122.083 31.6586C122.453 32.3332 122.941 32.9275 123.52 33.4103C124.12 33.9189 124.797 34.3149 125.523 34.5809C126.283 34.8643 127.084 35.006 127.89 34.9996C128.899 35.0097 129.903 34.86 130.87 34.5553C131.732 34.2881 132.527 33.8211 133.197 33.1881C133.839 32.5676 134.292 31.7583 134.497 30.8639C134.581 30.5336 134.637 30.1962 134.666 29.8556C134.699 29.5138 134.715 29.155 134.715 28.779V12.3559H131.484L131.5 13.2189ZM130.119 24.1648C129.544 24.5839 128.854 24.7911 128.157 24.7544C127.459 24.7834 126.772 24.5604 126.21 24.1221C125.692 23.6749 125.303 23.0827 125.087 22.4131C124.837 21.6526 124.714 20.8515 124.724 20.0462C124.716 19.2452 124.845 18.4492 125.103 17.6964C125.328 17.018 125.735 16.424 126.275 15.9874C126.861 15.5409 127.572 15.3153 128.294 15.3466C128.956 15.3136 129.609 15.5217 130.143 15.9361C130.643 16.3541 131.005 16.9283 131.177 17.5767C131.407 18.371 131.516 19.1987 131.5 20.0291C131.516 20.8623 131.407 21.6928 131.177 22.49C131.004 23.1541 130.633 23.7414 130.119 24.1648Z" fill="white"/>
<path d="M148.325 12.3555L144.521 22.8485L140.684 12.3555H136.88L142.76 27.6592L140.361 34.6318H143.761L152 12.3555H148.325Z" fill="white"/>
<path d="M17.2043 13.4068L13.5454 20.1145C12.5438 16.7021 12.3536 13.0809 12.9918 9.57209C13.6301 6.0633 15.077 2.77539 17.2043 0C17.2043 0 21.9777 2.71725 26.9854 11.9029C31.9931 21.0886 32.195 27.4715 32.195 27.4715C32.195 27.4715 26.7431 19.5676 19.7727 18.0723L17.2043 13.4068Z" fill="#CD99F6"/>
<path d="M32.1948 27.4725C32.1948 27.4725 32.0655 23.3282 29.4001 16.9282C26.155 16.2063 22.7759 16.6202 19.7725 18.1074C26.7428 19.5685 32.1948 27.4725 32.1948 27.4725Z" fill="url(#paint0_linear_4929_461)"/>
<path d="M10.969 24.8225H18.2948C16.0022 27.4461 13.1331 29.4309 9.94201 30.6009C6.75088 31.771 3.3362 32.0902 0.000593344 31.5301C0.000593344 31.5301 -0.160945 25.7966 4.84674 16.6109C9.85443 7.42525 14.9913 4.05859 14.9913 4.05859C14.9913 4.05859 11.2517 13.005 13.5375 20.1143L10.969 24.8225Z" fill="#6CCADA"/>
<path d="M14.9909 4.05859C14.9909 4.05859 11.6713 6.24606 7.72168 11.8942C8.76004 15.2228 10.7888 18.1066 13.5047 20.1143C11.2513 13.005 14.9909 4.05859 14.9909 4.05859Z" fill="url(#paint1_linear_4929_461)"/>
<path d="M23.4237 24.8314L19.7729 18.1152C23.0673 18.9051 26.1265 20.5427 28.6795 22.8828C31.2324 25.223 33.2002 28.1933 34.4083 31.5306C34.4083 31.5306 29.8044 34.5383 19.7729 34.5383C9.74137 34.5383 4.42676 31.5306 4.42676 31.5306C4.42676 31.5306 13.6264 30.4796 18.3029 24.8314H23.4237Z" fill="#4998E1"/>
<path d="M4.42676 31.5304C4.42676 31.5304 7.88368 33.4786 14.4583 34.2391C16.6703 31.6306 18.0198 28.3314 18.3029 24.8398C13.6264 30.4794 4.42676 31.5304 4.42676 31.5304Z" fill="url(#paint2_linear_4929_461)"/>
<path d="M18.2948 24.832L4.79025 28.4294L3.82102 30.3862L3.44141 31.8131C6.23491 31.7733 8.9917 31.134 11.5448 29.9341C14.098 28.7341 16.3943 26.9984 18.2948 24.832Z" fill="#6CCADA"/>
<path d="M12.746 16.098L13.5537 20.0969L17.2126 13.3892L17.5033 13.919L19.3853 10.9454V2.56298L15.8556 1.96484C13.2997 6.15112 12.2003 11.1479 12.746 16.098Z" fill="#CD99F6"/>
</g>
<defs>
<linearGradient id="paint0_linear_4929_461" x1="30.1675" y1="22.0807" x2="20.1625" y2="20.7111" gradientUnits="userSpaceOnUse">
<stop stop-color="#8F72DA" stop-opacity="0"/>
<stop offset="1" stop-color="#8F72DA"/>
</linearGradient>
<linearGradient id="paint1_linear_4929_461" x1="11.2513" y1="7.29707" x2="13.6003" y2="18.6031" gradientUnits="userSpaceOnUse">
<stop stop-color="#45A6C8" stop-opacity="0"/>
<stop offset="1" stop-color="#45A6C8"/>
</linearGradient>
<linearGradient id="paint2_linear_4929_461" x1="10.3552" y1="31.9235" x2="19.0879" y2="23.7254" gradientUnits="userSpaceOnUse">
<stop stop-color="#3B75A7" stop-opacity="0"/>
<stop offset="1" stop-color="#3B75A7"/>
</linearGradient>
<clipPath id="clip0_4929_461">
<rect width="152" height="35" fill="white"/>
</clipPath>
</defs>
</svg>
