<svg width="91" height="24" viewBox="0 0 91 24" fill="none" xmlns="http://www.w3.org/2000/svg">
<g clip-path="url(#clip0_4929_549)">
<path d="M33.7439 5.91406H28.7528C28.5876 5.91396 28.4277 5.97287 28.3021 6.08018C28.1765 6.18749 28.0933 6.33614 28.0675 6.49936L26.0489 19.2977C26.0397 19.3571 26.0434 19.4178 26.0598 19.4756C26.0762 19.5335 26.105 19.587 26.1441 19.6327C26.1832 19.6783 26.2318 19.7149 26.2864 19.74C26.341 19.7651 26.4004 19.778 26.4605 19.7779H28.8433C29.0086 19.778 29.1686 19.719 29.2942 19.6115C29.4199 19.5041 29.503 19.3553 29.5286 19.1919L30.073 15.74C30.0986 15.5768 30.1816 15.428 30.3071 15.3206C30.4326 15.2132 30.5923 15.1541 30.7576 15.154H32.3376C35.6253 15.154 37.5227 13.563 38.0183 10.4103C38.2416 9.03101 38.0277 7.94726 37.3819 7.18828C36.6725 6.35486 35.4144 5.91406 33.7439 5.91406ZM34.3197 10.5884C34.0467 12.3793 32.6784 12.3793 31.3553 12.3793H30.6021L31.1305 9.03465C31.1459 8.9368 31.1958 8.84768 31.2711 8.78333C31.3465 8.71898 31.4423 8.68363 31.5413 8.68362H31.8865C32.7878 8.68362 33.638 8.68362 34.0774 9.1974C34.3394 9.50391 34.4197 9.9593 34.3197 10.5884ZM48.663 10.5307H46.2729C46.1739 10.5307 46.0781 10.5661 46.0027 10.6304C45.9274 10.6948 45.8775 10.7839 45.8621 10.8818L45.7562 11.5502L45.5891 11.308C45.0717 10.557 43.9179 10.306 42.7663 10.306C40.1252 10.306 37.8694 12.3063 37.43 15.1124C37.2016 16.5121 37.5264 17.8505 38.3204 18.7839C39.0487 19.6422 40.0909 19.9998 41.3308 19.9998C43.4589 19.9998 44.6389 18.6314 44.6389 18.6314L44.5324 19.2955C44.5229 19.3549 44.5264 19.4156 44.5426 19.4735C44.5589 19.5314 44.5874 19.5851 44.6264 19.6309C44.6654 19.6767 44.7139 19.7135 44.7684 19.7387C44.823 19.764 44.8824 19.7771 44.9425 19.7772H47.0954C47.2607 19.7773 47.4207 19.7183 47.5463 19.6108C47.672 19.5033 47.7551 19.3545 47.7807 19.1912L49.0724 11.0109C49.0819 10.9517 49.0785 10.8911 49.0623 10.8333C49.0461 10.7755 49.0175 10.722 48.9786 10.6763C48.9396 10.6307 48.8913 10.594 48.8368 10.5689C48.7823 10.5437 48.723 10.5307 48.663 10.5307ZM45.3315 15.1824C45.1009 16.5479 44.0171 17.4645 42.6349 17.4645C41.9409 17.4645 41.3862 17.2419 41.0301 16.8201C40.6769 16.4012 40.5426 15.8049 40.655 15.1408C40.8703 13.7871 41.9723 12.8405 43.3333 12.8405C44.012 12.8405 44.5638 13.066 44.9272 13.4915C45.2914 13.9213 45.4359 14.5212 45.3315 15.1824ZM61.392 10.5307H58.9903C58.877 10.5309 58.7655 10.5587 58.6654 10.6118C58.5653 10.6648 58.4797 10.7414 58.4159 10.8351L55.1034 15.7144L53.6993 11.0255C53.6562 10.8825 53.5682 10.7572 53.4483 10.6681C53.3285 10.579 53.1831 10.5308 53.0337 10.5307H50.6736C50.6073 10.5306 50.542 10.5462 50.483 10.5764C50.424 10.6066 50.3731 10.6504 50.3345 10.7042C50.2959 10.758 50.2707 10.8203 50.261 10.8858C50.2513 10.9514 50.2574 11.0183 50.2788 11.081L52.9243 18.8445L50.4371 22.3556C50.3929 22.4178 50.3667 22.491 50.3614 22.5672C50.356 22.6433 50.3717 22.7195 50.4067 22.7873C50.4418 22.8552 50.4948 22.912 50.56 22.9517C50.6253 22.9914 50.7001 23.0124 50.7765 23.0124H53.1753C53.2873 23.0125 53.3977 22.9855 53.4969 22.9336C53.5962 22.8818 53.6814 22.8066 53.7453 22.7146L61.7336 11.1839C61.7769 11.1215 61.8023 11.0485 61.807 10.9727C61.8118 10.8969 61.7957 10.8212 61.7605 10.754C61.7253 10.6867 61.6723 10.6303 61.6074 10.5909C61.5425 10.5516 61.468 10.5308 61.392 10.5307Z" fill="#253B80"/>
<path d="M69.3436 5.91284H64.3518C64.1867 5.91291 64.027 5.9719 63.9016 6.07919C63.7761 6.18649 63.693 6.33504 63.6673 6.49813L61.6487 19.2965C61.6393 19.3558 61.6429 19.4164 61.6591 19.4742C61.6754 19.5319 61.7041 19.5855 61.7431 19.6311C61.782 19.6768 61.8304 19.7134 61.885 19.7386C61.9395 19.7637 61.9988 19.7767 62.0588 19.7767H64.6204C64.7359 19.7765 64.8477 19.7351 64.9354 19.6599C65.0232 19.5848 65.0812 19.4807 65.0991 19.3666L65.672 15.7388C65.6976 15.5755 65.7806 15.4268 65.9061 15.3194C66.0316 15.2119 66.1913 15.1528 66.3566 15.1527H67.9358C71.2243 15.1527 73.121 13.5618 73.6173 10.4091C73.8413 9.02978 73.626 7.94604 72.9802 7.18706C72.2715 6.35363 71.0141 5.91284 69.3436 5.91284ZM69.9194 10.5872C69.6472 12.3781 68.2788 12.3781 66.955 12.3781H66.2026L66.7317 9.03343C66.7468 8.93558 66.7965 8.84638 66.8718 8.782C66.947 8.71761 67.0428 8.68228 67.1418 8.6824H67.487C68.3876 8.6824 69.2385 8.6824 69.6778 9.19617C69.9398 9.50269 70.0194 9.95808 69.9194 10.5872ZM84.262 10.5295H81.8734C81.7743 10.5292 81.6785 10.5645 81.6032 10.6289C81.5279 10.6933 81.4783 10.7826 81.4633 10.8805L81.3574 11.549L81.1896 11.3067C80.6722 10.5558 79.5191 10.3047 78.3675 10.3047C75.7264 10.3047 73.4713 12.3051 73.032 15.1111C72.8043 16.5109 73.1276 17.8493 73.9216 18.7827C74.6514 19.641 75.6921 19.9986 76.932 19.9986C79.0601 19.9986 80.2401 18.6302 80.2401 18.6302L80.1336 19.2943C80.1241 19.3538 80.1276 19.4147 80.1439 19.4727C80.1602 19.5307 80.189 19.5844 80.2281 19.6302C80.2672 19.676 80.3159 19.7128 80.3706 19.738C80.4254 19.7631 80.4849 19.7761 80.5452 19.776H82.6973C82.8625 19.7759 83.0223 19.7168 83.1478 19.6093C83.2733 19.5019 83.3563 19.3532 83.3819 19.19L84.6743 11.0097C84.6835 10.9503 84.6797 10.8896 84.6632 10.8317C84.6467 10.7739 84.6178 10.7204 84.5786 10.6747C84.5395 10.6291 84.4909 10.5925 84.4362 10.5675C84.3816 10.5424 84.3221 10.5294 84.262 10.5295ZM80.9305 15.1812C80.7014 16.5466 79.6162 17.4633 78.2339 17.4633C77.5414 17.4633 76.9853 17.2407 76.6291 16.8189C76.2759 16.4 76.1431 15.8037 76.254 15.1396C76.4707 13.7858 77.5713 12.8393 78.9323 12.8393C79.611 12.8393 80.1628 13.0648 80.5262 13.4903C80.8918 13.9201 81.0363 14.52 80.9305 15.1812ZM87.0797 6.26387L85.0312 19.2965C85.0218 19.3558 85.0254 19.4164 85.0417 19.4742C85.058 19.5319 85.0866 19.5855 85.1256 19.6311C85.1646 19.6768 85.213 19.7134 85.2675 19.7386C85.322 19.7637 85.3813 19.7767 85.4414 19.7767H87.5008C87.8431 19.7767 88.1336 19.5286 88.1861 19.1907L90.2062 6.39304C90.2155 6.33372 90.212 6.27307 90.1957 6.21526C90.1794 6.15746 90.1508 6.10386 90.1118 6.05816C90.0728 6.01247 90.0244 5.97575 89.9699 5.95054C89.9154 5.92533 89.8561 5.91222 89.796 5.91211H87.4899C87.3909 5.91246 87.2952 5.94805 87.2201 6.01251C87.1449 6.07696 87.0952 6.16607 87.0797 6.26387Z" fill="#179BD7"/>
<path d="M5.32231 22.2634L5.70399 19.8391L4.85378 19.8194H0.793945L3.61532 1.92996C3.62372 1.8753 3.65148 1.82548 3.69355 1.78958C3.73561 1.75368 3.78918 1.73409 3.84448 1.73438H10.6899C12.9625 1.73438 14.5308 2.20728 15.3497 3.14069C15.7335 3.57856 15.978 4.03614 16.0962 4.5397C16.2203 5.06807 16.2225 5.69934 16.1013 6.46927L16.0926 6.52547V7.0188L16.4765 7.23628C16.7695 7.38475 17.0329 7.58559 17.2537 7.82887C17.5821 8.20326 17.7945 8.67908 17.8842 9.24321C17.9769 9.8234 17.9463 10.5138 17.7945 11.2954C17.6193 12.1945 17.3361 12.9776 16.9537 13.6183C16.6163 14.1923 16.1627 14.6895 15.6219 15.0779C15.1139 15.4384 14.5104 15.7121 13.828 15.8872C13.1668 16.0595 12.413 16.1463 11.5861 16.1463H11.0534C10.6724 16.1463 10.3024 16.2835 10.012 16.5295C9.72191 16.778 9.5295 17.1215 9.46899 17.4986L9.42885 17.7168L8.75452 21.9898L8.72387 22.1467C8.71584 22.1963 8.70197 22.2211 8.68154 22.2379C8.66175 22.2541 8.63705 22.2631 8.61148 22.2634H5.32231Z" fill="#253B80"/>
<path d="M16.8402 6.58398C16.8197 6.71462 16.7964 6.84817 16.7701 6.98537C15.8674 11.6203 12.7789 13.2214 8.83435 13.2214H6.82596C6.34357 13.2214 5.93708 13.5717 5.86191 14.0476L4.83363 20.569L4.54244 22.4176C4.53084 22.4909 4.53527 22.5659 4.55542 22.6373C4.57558 22.7088 4.61097 22.775 4.65918 22.8314C4.70738 22.8879 4.76725 22.9332 4.83466 22.9643C4.90206 22.9954 4.97541 23.0116 5.04965 23.0116H8.61176C9.03359 23.0116 9.39191 22.7051 9.45832 22.2891L9.49335 22.1081L10.164 17.852L10.2071 17.6184C10.2728 17.201 10.6318 16.8945 11.0536 16.8945H11.5864C15.0376 16.8945 17.7393 15.4933 18.5289 11.4386C18.8588 9.74472 18.688 8.33038 17.8152 7.33567C17.5385 7.02796 17.2081 6.77324 16.8402 6.58398Z" fill="#179BD7"/>
<path d="M15.8952 6.2071C15.607 6.12372 15.3138 6.05863 15.0173 6.01225C14.4315 5.92222 13.8395 5.87903 13.2468 5.88307H7.88139C7.6772 5.88291 7.47969 5.95581 7.32456 6.08859C7.16943 6.22136 7.06692 6.40526 7.03556 6.60703L5.89417 13.8363L5.86133 14.0473C5.89689 13.8171 6.01364 13.6073 6.19047 13.4558C6.36729 13.3043 6.59251 13.221 6.82538 13.2211H8.83377C12.7783 13.2211 15.8668 11.6192 16.7695 6.98506C16.7965 6.84786 16.8192 6.71431 16.8396 6.58367C16.6014 6.45875 16.3531 6.35403 16.0974 6.27059C16.0304 6.24835 15.963 6.22718 15.8952 6.2071Z" fill="#222D65"/>
<path d="M7.03569 6.60695C7.06678 6.40513 7.16924 6.22115 7.32444 6.08844C7.47965 5.95573 7.67731 5.88309 7.88152 5.88373H13.247C13.8826 5.88373 14.4759 5.92533 15.0174 6.0129C15.3839 6.07049 15.7452 6.15663 16.0982 6.27052C16.3646 6.35882 16.612 6.46318 16.8404 6.5836C17.109 4.87078 16.8383 3.70457 15.9122 2.64856C14.8912 1.486 13.0484 0.988281 10.6905 0.988281H3.84504C3.36337 0.988281 2.9525 1.33858 2.87806 1.81514L0.0267633 19.8884C0.0134824 19.9724 0.0185353 20.0581 0.0415745 20.1399C0.0646136 20.2217 0.105092 20.2975 0.160226 20.3621C0.215359 20.4268 0.283839 20.4787 0.360955 20.5143C0.438071 20.55 0.521993 20.5685 0.606948 20.5686H4.83318L5.89429 13.8363L7.03569 6.60695Z" fill="#253B80"/>
</g>
<defs>
<clipPath id="clip0_4929_549">
<rect width="90.2256" height="24" fill="white"/>
</clipPath>
</defs>
</svg>
