<svg width="133" height="24" viewBox="0 0 133 24" fill="none" xmlns="http://www.w3.org/2000/svg">
<path fill-rule="evenodd" clip-rule="evenodd" d="M26 10.25C23.378 10.25 21.25 12.378 21.25 15C21.25 17.622 23.378 19.75 26 19.75C28.622 19.75 30.75 17.622 30.75 15C30.75 12.378 28.622 10.25 26 10.25ZM26 11.75C27.794 11.75 29.25 13.206 29.25 15C29.25 16.794 27.794 18.25 26 18.25C24.206 18.25 22.75 16.794 22.75 15C22.75 13.206 24.206 11.75 26 11.75Z" fill="#1FB46C"/>
<path fill-rule="evenodd" clip-rule="evenodd" d="M24.0549 16.0302L25.0549 17.0302C25.2069 17.1822 25.4149 17.2612 25.6289 17.2492C25.8419 17.2362 26.0409 17.1342 26.1729 16.9662L28.0879 14.5522C28.3449 14.2272 28.2899 13.7552 27.9659 13.4982C27.6419 13.2412 27.1689 13.2952 26.9119 13.6202L25.5209 15.3752L25.1159 14.9702C24.8229 14.6772 24.3479 14.6772 24.0549 14.9702C23.7629 15.2622 23.7629 15.7382 24.0549 16.0302Z" fill="#1FB46C"/>
<path fill-rule="evenodd" clip-rule="evenodd" d="M28.75 11.536C28.75 9.631 28.75 8.431 28.75 7C28.75 6.271 28.46 5.571 27.945 5.055C27.429 4.54 26.729 4.25 26 4.25C22.537 4.25 15.463 4.25 12 4.25C11.271 4.25 10.571 4.54 10.055 5.055C9.54 5.571 9.25 6.271 9.25 7V16C9.25 16.729 9.54 17.429 10.055 17.945C10.571 18.46 11.271 18.75 12 18.75H23.355C23.769 18.75 24.105 18.414 24.105 18C24.105 17.586 23.769 17.25 23.355 17.25C19.632 17.25 14.899 17.25 12 17.25C11.668 17.25 11.351 17.118 11.116 16.884C10.882 16.649 10.75 16.332 10.75 16C10.75 13.556 10.75 9.444 10.75 7C10.75 6.668 10.882 6.351 11.116 6.116C11.351 5.882 11.668 5.75 12 5.75H26C26.332 5.75 26.649 5.882 26.884 6.116C27.118 6.351 27.25 6.668 27.25 7V11.536C27.25 11.95 27.586 12.286 28 12.286C28.414 12.286 28.75 11.95 28.75 11.536Z" fill="#1FB46C"/>
<path fill-rule="evenodd" clip-rule="evenodd" d="M28 8.25H10C9.586 8.25 9.25 8.586 9.25 9C9.25 9.414 9.586 9.75 10 9.75H28C28.414 9.75 28.75 9.414 28.75 9C28.75 8.586 28.414 8.25 28 8.25Z" fill="#1FB46C"/>
<path fill-rule="evenodd" clip-rule="evenodd" d="M16.001 14.25H13C12.586 14.25 12.25 14.586 12.25 15C12.25 15.414 12.586 15.75 13 15.75H16.001C16.415 15.75 16.751 15.414 16.751 15C16.751 14.586 16.415 14.25 16.001 14.25Z" fill="#1FB46C"/>
<path d="M41.3955 17L37.3475 6.024H39.2835L42.0035 13.688C42.0568 13.816 42.1102 13.9653 42.1635 14.136C42.2168 14.3067 42.2702 14.472 42.3235 14.632C42.3768 14.7813 42.4248 14.9147 42.4675 15.032H42.5475C42.5902 14.9147 42.6382 14.7813 42.6915 14.632C42.7448 14.4827 42.7982 14.328 42.8515 14.168C42.9048 14.008 42.9582 13.8533 43.0115 13.704L45.6995 6.024H47.5715L43.5075 17H41.3955ZM53.7876 17.192C52.657 17.192 51.6756 16.984 50.8436 16.568C50.0223 16.152 49.3876 15.5227 48.9396 14.68C48.5023 13.8373 48.2836 12.7813 48.2836 11.512C48.2836 10.232 48.5023 9.176 48.9396 8.344C49.3876 7.50133 50.0223 6.872 50.8436 6.456C51.6756 6.04 52.657 5.832 53.7876 5.832C54.9396 5.832 55.9263 6.04 56.7476 6.456C57.569 6.872 58.1983 7.50133 58.6356 8.344C59.0836 9.176 59.3076 10.232 59.3076 11.512C59.3076 12.7813 59.0836 13.8373 58.6356 14.68C58.1983 15.5227 57.569 16.152 56.7476 16.568C55.9263 16.984 54.9396 17.192 53.7876 17.192ZM53.7876 15.672C54.3743 15.672 54.8916 15.592 55.3396 15.432C55.7983 15.272 56.1823 15.0267 56.4916 14.696C56.8116 14.3653 57.0516 13.9493 57.2116 13.448C57.3823 12.9467 57.4676 12.3653 57.4676 11.704V11.352C57.4676 10.6693 57.3823 10.0773 57.2116 9.576C57.0516 9.07467 56.8116 8.65867 56.4916 8.328C56.1823 7.99733 55.7983 7.752 55.3396 7.592C54.8916 7.432 54.3743 7.352 53.7876 7.352C53.2116 7.352 52.6943 7.432 52.2356 7.592C51.7876 7.752 51.4036 7.99733 51.0836 8.328C50.7743 8.65867 50.5396 9.07467 50.3796 9.576C50.2196 10.0773 50.1396 10.6693 50.1396 11.352V11.704C50.1396 12.3653 50.2196 12.9467 50.3796 13.448C50.5396 13.9493 50.7743 14.3653 51.0836 14.696C51.4036 15.0267 51.7876 15.272 52.2356 15.432C52.6943 15.592 53.2116 15.672 53.7876 15.672ZM61.3741 17V6.024H67.1501C67.9288 6.024 68.5741 6.16267 69.0861 6.44C69.5981 6.71733 69.9821 7.10667 70.2381 7.608C70.4941 8.09867 70.6221 8.67467 70.6221 9.336C70.6221 10.072 70.4568 10.712 70.1261 11.256C69.7955 11.8 69.3261 12.2 68.7181 12.456L71.0061 17H69.0541L66.9741 12.76H63.1661V17H61.3741ZM63.1661 11.256H67.0061C67.5821 11.256 68.0248 11.0853 68.3341 10.744C68.6541 10.4027 68.8141 9.928 68.8141 9.32C68.8141 8.94667 68.7448 8.632 68.6061 8.376C68.4675 8.10933 68.2648 7.90667 67.9981 7.768C67.7315 7.62933 67.4008 7.56 67.0061 7.56H63.1661V11.256ZM72.921 17V6.024H74.713V11.496L79.945 6.024H82.153L77.929 10.44L82.265 17H80.153L76.713 11.704L74.713 13.544V17H72.921ZM81.7523 17L86.0563 6.024H88.3443L92.6643 17H90.7443L89.7683 14.456H84.5683L83.5923 17H81.7523ZM85.1443 12.936H89.1763L87.9443 9.72C87.9123 9.624 87.8643 9.49067 87.8003 9.32C87.7363 9.14933 87.6669 8.96267 87.5923 8.76C87.5283 8.55733 87.4589 8.35467 87.3843 8.152C87.3203 7.93867 87.2616 7.74667 87.2083 7.576H87.1123C87.0483 7.77867 86.9683 8.01867 86.8723 8.296C86.7763 8.57333 86.6803 8.84 86.5843 9.096C86.4989 9.352 86.4243 9.56 86.3602 9.72L85.1443 12.936ZM98.1413 17.192C97.5439 17.192 96.9679 17.128 96.4133 17C95.8586 16.8827 95.3679 16.6907 94.9413 16.424C94.5146 16.1467 94.1786 15.8 93.9333 15.384C93.6879 14.9573 93.5653 14.4507 93.5653 13.864C93.5653 13.8 93.5653 13.7413 93.5653 13.688C93.5759 13.624 93.5813 13.5707 93.5813 13.528H95.3733C95.3733 13.56 95.3679 13.608 95.3573 13.672C95.3573 13.736 95.3573 13.7893 95.3573 13.832C95.3573 14.2267 95.4746 14.5627 95.7093 14.84C95.9439 15.1173 96.2693 15.3253 96.6853 15.464C97.1119 15.6027 97.5973 15.672 98.1413 15.672C98.4399 15.672 98.7279 15.656 99.0053 15.624C99.2826 15.5813 99.5333 15.5227 99.7573 15.448C99.9919 15.3627 100.195 15.2613 100.365 15.144C100.536 15.016 100.669 14.8667 100.765 14.696C100.861 14.5253 100.909 14.328 100.909 14.104C100.909 13.7627 100.808 13.48 100.605 13.256C100.413 13.032 100.147 12.8453 99.8053 12.696C99.4746 12.5467 99.0959 12.4133 98.6693 12.296C98.2533 12.1787 97.8213 12.0613 97.3733 11.944C96.9253 11.8267 96.4879 11.688 96.0613 11.528C95.6453 11.368 95.2666 11.176 94.9253 10.952C94.5946 10.7173 94.3279 10.4293 94.1253 10.088C93.9333 9.736 93.8372 9.30933 93.8372 8.808C93.8372 8.328 93.9386 7.90133 94.1413 7.528C94.3439 7.15467 94.6373 6.84533 95.0213 6.6C95.4053 6.344 95.8639 6.152 96.3973 6.024C96.9306 5.896 97.5333 5.832 98.2053 5.832C98.7813 5.832 99.3253 5.896 99.8373 6.024C100.349 6.14133 100.797 6.328 101.181 6.584C101.565 6.84 101.864 7.16533 102.077 7.56C102.301 7.95467 102.413 8.424 102.413 8.968V9.16H100.637V8.952C100.637 8.61067 100.536 8.32267 100.333 8.088C100.131 7.85333 99.8479 7.672 99.4853 7.544C99.1226 7.416 98.7013 7.352 98.2213 7.352C97.6559 7.352 97.1813 7.41067 96.7973 7.528C96.4133 7.63467 96.1199 7.78933 95.9173 7.992C95.7253 8.184 95.6293 8.41867 95.6293 8.696C95.6293 9.00533 95.7306 9.26133 95.9333 9.464C96.1359 9.656 96.4026 9.82133 96.7333 9.96C97.0746 10.0987 97.4533 10.2267 97.8693 10.344C98.2959 10.4507 98.7279 10.568 99.1653 10.696C99.6133 10.8133 100.045 10.952 100.461 11.112C100.888 11.272 101.267 11.4693 101.597 11.704C101.939 11.9387 102.211 12.232 102.413 12.584C102.616 12.9253 102.717 13.3467 102.717 13.848C102.717 14.6373 102.52 15.2827 102.125 15.784C101.731 16.2747 101.187 16.632 100.493 16.856C99.8106 17.08 99.0266 17.192 98.1413 17.192ZM108.86 17.192C108.263 17.192 107.687 17.128 107.132 17C106.577 16.8827 106.087 16.6907 105.66 16.424C105.233 16.1467 104.897 15.8 104.652 15.384C104.407 14.9573 104.284 14.4507 104.284 13.864C104.284 13.8 104.284 13.7413 104.284 13.688C104.295 13.624 104.3 13.5707 104.3 13.528H106.092C106.092 13.56 106.087 13.608 106.076 13.672C106.076 13.736 106.076 13.7893 106.076 13.832C106.076 14.2267 106.193 14.5627 106.428 14.84C106.663 15.1173 106.988 15.3253 107.404 15.464C107.831 15.6027 108.316 15.672 108.86 15.672C109.159 15.672 109.447 15.656 109.724 15.624C110.001 15.5813 110.252 15.5227 110.476 15.448C110.711 15.3627 110.913 15.2613 111.084 15.144C111.255 15.016 111.388 14.8667 111.484 14.696C111.58 14.5253 111.628 14.328 111.628 14.104C111.628 13.7627 111.527 13.48 111.324 13.256C111.132 13.032 110.865 12.8453 110.524 12.696C110.193 12.5467 109.815 12.4133 109.388 12.296C108.972 12.1787 108.54 12.0613 108.092 11.944C107.644 11.8267 107.207 11.688 106.78 11.528C106.364 11.368 105.985 11.176 105.644 10.952C105.313 10.7173 105.047 10.4293 104.844 10.088C104.652 9.736 104.556 9.30933 104.556 8.808C104.556 8.328 104.657 7.90133 104.86 7.528C105.063 7.15467 105.356 6.84533 105.74 6.6C106.124 6.344 106.583 6.152 107.116 6.024C107.649 5.896 108.252 5.832 108.924 5.832C109.5 5.832 110.044 5.896 110.556 6.024C111.068 6.14133 111.516 6.328 111.9 6.584C112.284 6.84 112.583 7.16533 112.796 7.56C113.02 7.95467 113.132 8.424 113.132 8.968V9.16H111.356V8.952C111.356 8.61067 111.255 8.32267 111.052 8.088C110.849 7.85333 110.567 7.672 110.204 7.544C109.841 7.416 109.42 7.352 108.94 7.352C108.375 7.352 107.9 7.41067 107.516 7.528C107.132 7.63467 106.839 7.78933 106.636 7.992C106.444 8.184 106.348 8.41867 106.348 8.696C106.348 9.00533 106.449 9.26133 106.652 9.464C106.855 9.656 107.121 9.82133 107.452 9.96C107.793 10.0987 108.172 10.2267 108.588 10.344C109.015 10.4507 109.447 10.568 109.884 10.696C110.332 10.8133 110.764 10.952 111.18 11.112C111.607 11.272 111.985 11.4693 112.316 11.704C112.657 11.9387 112.929 12.232 113.132 12.584C113.335 12.9253 113.436 13.3467 113.436 13.848C113.436 14.6373 113.239 15.2827 112.844 15.784C112.449 16.2747 111.905 16.632 111.212 16.856C110.529 17.08 109.745 17.192 108.86 17.192ZM115.515 17V6.024H124.027V7.56H117.307V10.616H123.323V12.152H117.307V15.464H124.123V17H115.515Z" fill="white"/>
</svg>
